<?xml version="1.0" encoding="utf-8"?>
<!-- Generator: Adobe Illustrator 16.0.0, SVG Export Plug-In . SVG Version: 6.00 Build 0)  -->
<!DOCTYPE svg PUBLIC "-//W3C//DTD SVG 1.1//EN" "http://www.w3.org/Graphics/SVG/1.1/DTD/svg11.dtd">
<svg version="1.1" id="Layer_1" xmlns="http://www.w3.org/2000/svg" xmlns:xlink="http://www.w3.org/1999/xlink" x="0px" y="0px"
	 width="80px" height="103px" viewBox="0 0 80 103" enable-background="new 0 0 80 103" xml:space="preserve">
<g>
	<g>
		<path fill="#33B44A" d="M68.141,39.63c0-0.716-0.581-1.297-1.297-1.297H51.879c-2.729,0-4.947,2.103-4.947,4.832
			c0,2.73,2.217,4.832,4.947,4.832h12.019c1.171,0,2.12,1.069,2.12,2.238s-0.949,2.239-2.12,2.239H48.933
			c-0.715,0-1.295,0.578-1.295,1.293c0,0.717,0.58,1.297,1.295,1.297h14.965c2.729,0,4.948-2.1,4.948-4.829
			c0-2.73-2.219-4.831-4.948-4.831H51.879c-1.17,0-2.121-1.07-2.121-2.239c0-1.169,0.951-2.238,2.121-2.238h14.965
			C67.56,40.927,68.141,40.346,68.141,39.63"/>
		<path fill="#33B44A" d="M41.746,32.559c0-1.04-0.843-1.884-1.885-1.884c-1.043,0-1.887,0.844-1.887,1.884
			c0,1.042,0.843,1.886,1.887,1.886C40.903,34.445,41.746,33.601,41.746,32.559"/>
		<g>
			<g>
				<g>
					<defs>
						<rect id="SVGID_1_" x="31.966" y="30.675" width="3.771" height="3.77"/>
					</defs>
					<clipPath id="SVGID_2_">
						<use xlink:href="#SVGID_1_"  overflow="visible"/>
					</clipPath>
					<path opacity="0.8" clip-path="url(#SVGID_2_)" fill="#33B44A" enable-background="new    " d="M35.736,32.559
						c0-1.04-0.843-1.884-1.884-1.884c-1.042,0-1.886,0.844-1.886,1.884c0,1.042,0.844,1.886,1.886,1.886
						C34.893,34.445,35.736,33.601,35.736,32.559"/>
				</g>
			</g>
		</g>
		<g>
			<g>
				<g>
					<defs>
						<rect id="SVGID_3_" x="25.956" y="30.675" width="3.771" height="3.77"/>
					</defs>
					<clipPath id="SVGID_4_">
						<use xlink:href="#SVGID_3_"  overflow="visible"/>
					</clipPath>
					<path opacity="0.6" clip-path="url(#SVGID_4_)" fill="#33B44A" enable-background="new    " d="M29.727,32.559
						c0-1.04-0.845-1.884-1.886-1.884c-1.042,0-1.885,0.844-1.885,1.884c0,1.042,0.843,1.886,1.885,1.886
						C28.883,34.445,29.727,33.601,29.727,32.559"/>
				</g>
			</g>
		</g>
		<g>
			<g>
				<g>
					<defs>
						<rect id="SVGID_5_" x="19.947" y="30.675" width="3.77" height="3.77"/>
					</defs>
					<clipPath id="SVGID_6_">
						<use xlink:href="#SVGID_5_"  overflow="visible"/>
					</clipPath>
					<path opacity="0.4" clip-path="url(#SVGID_6_)" fill="#33B44A" enable-background="new    " d="M23.717,32.559
						c0-1.04-0.842-1.884-1.884-1.884c-1.041,0-1.886,0.844-1.886,1.884c0,1.042,0.845,1.886,1.886,1.886
						C22.875,34.445,23.717,33.601,23.717,32.559"/>
				</g>
			</g>
		</g>
		<g>
			<g>
				<g>
					<defs>
						<rect id="SVGID_7_" x="13.938" y="30.675" width="3.77" height="3.77"/>
					</defs>
					<clipPath id="SVGID_8_">
						<use xlink:href="#SVGID_7_"  overflow="visible"/>
					</clipPath>
					<path opacity="0.2" clip-path="url(#SVGID_8_)" fill="#33B44A" enable-background="new    " d="M17.708,32.559
						c0-1.04-0.844-1.884-1.884-1.884c-1.042,0-1.886,0.844-1.886,1.884c0,1.042,0.845,1.886,1.886,1.886
						C16.864,34.445,17.708,33.601,17.708,32.559"/>
				</g>
			</g>
		</g>
		<path fill="#33B44A" d="M31.495,38.334c-0.04,0-0.079,0.008-0.118,0.011v-0.011H18.65c-5.056,0-8.481,3.31-8.481,8.365v7.07
			c0,0.779,0.631,1.414,1.412,1.414c0.782,0,1.415-0.633,1.415-1.414v-7.07c0-3.505,2.12-5.773,5.655-5.773h12.727v-0.013
			c0.039,0.003,0.077,0.013,0.118,0.013c0.716,0,1.297-0.581,1.297-1.296S32.211,38.334,31.495,38.334"/>
		<path fill="#33B44A" d="M14.409,46.699c0,0.717,0.581,1.298,1.295,1.298h12.962c0.717,0,1.296-0.58,1.296-1.298
			c0-0.715-0.579-1.297-1.296-1.297H15.705C14.99,45.403,14.409,45.984,14.409,46.699"/>
		<path fill="#33B44A" d="M38.446,39.63v14.138c0,0.781,0.633,1.416,1.416,1.416c0.781,0,1.414-0.635,1.414-1.416V39.63
			c0-0.781-0.633-1.413-1.414-1.413C39.079,38.217,38.446,38.85,38.446,39.63"/>
	</g>
</g>
</svg>
